<?xml version="1.0" encoding="UTF-8"?>
<svg version="1.1" xmlns="http://www.w3.org/2000/svg" width="24" height="24">
<path d="M0 0 C0.845625 -0.00773438 1.69125 -0.01546875 2.5625 -0.0234375 C5.55000805 0.46490516 6.9219202 1.17185058 9 3.375 C9 5.025 9 6.675 9 8.375 C3.06 8.375 -2.88 8.375 -9 8.375 C-9 3.375 -9 3.375 -7.3125 1.5859375 C-4.66049819 0.19722033 -2.97996128 -0.02725574 0 0 Z " fill="#FFFFFF" transform="translate(12,12.625)"/>
<path d="M0 0 C1.134375 0.020625 2.26875 0.04125 3.4375 0.0625 C3.53515625 6.21484375 3.53515625 6.21484375 3.4375 8.0625 C2.4375 9.0625 2.4375 9.0625 -0.5625 9.1875 C-3.5625 9.0625 -3.5625 9.0625 -4.5625 8.0625 C-4.6875 4.5625 -4.6875 4.5625 -4.5625 1.0625 C-3.5625 0.0625 -3.5625 0.0625 0 0 Z " fill="#FFFFFF" transform="translate(12.5625,1.9375)"/>
</svg>
