<?xml version="1.0" encoding="utf-8"?>
<!-- Generator: Adobe Illustrator 28.0.0, SVG Export Plug-In . SVG Version: 6.00 Build 0)  -->
<svg version="1.1" id="Layer_2_00000061448787458162439720000000677921356544587170_"
	 xmlns="http://www.w3.org/2000/svg" xmlns:xlink="http://www.w3.org/1999/xlink" x="0px" y="0px" viewBox="0 0 612.1 515.8"
	 style="enable-background:new 0 0 612.1 515.8;" xml:space="preserve">
<style type="text/css">
	.st0{fill:#1D1D1B;}
	.st1{fill:#2D88D6;}
	.st2{fill:#FFFFFF;}
	.st3{fill:#EC1C24;}
</style>
<g>
	<path class="st0" d="M611.3,134.8c-0.4-1-1.1-1.8-1.6-2.7c-2.2-3.8-4.7-7.5-6.5-11.5c-2.2-4.7-5-8.6-9.8-10.9
		c-1.6-0.8-3.1-2-4.2-3.4c-1.9-2.2-1.7-4.1,0.4-6.4c0.5,0.6,1,1.1,1.5,1.7c2.6,2.5,4,2.8,7.2,1c2.9-1.7,5.7-3.6,8.4-5.6
		c1.6-1.1,2.4-2.7,2.5-4.7c0.2-2.5-0.3-5-1.5-7.2c-1.3-2.3-3.3-3.8-6-3.8c-2.1,0-4.2,0.3-6.3,0.4c-1.4,0.1-2.8,0.2-4.2,0.3
		c0-0.8-0.2-1.3-0.1-1.8c0.7-2,1.3-4,2.3-5.8c2-4,1.4-6.9-2.6-10.3c-3-2.5-5.2-2.5-8.7,0.4c-2.1,1.7-4,3.5-6,5.4
		c-0.6-0.6-1.2-1-1.7-1.6c-6-6.9-13.6-10.6-22.6-12c-10.7-1.7-20.9-5.1-30.4-10.4c-5.2-2.9-11-3.3-16.4-4.9
		c-0.5-0.2-1.1-0.1-1.7-0.1c-6-0.2-11.6,1.3-17.2,3.1c-8.7,2.8-17.3,5.9-26.7,5.1c-1.2-0.1-2.6,0.6-3.8,1.2
		c-0.9,0.4-1.7,1.2-2.5,1.9c-4.7,4-9.9,6.3-16.2,6.7c-4,0.3-7.9,1.4-11.9,2.2c-1.3,0.2-2.6,0.6-3.9,0.5c-7.1-0.7-14.2-0.6-21.2,0.7
		c-8.4,1.6-16,4.8-22,11.1c-0.5,0.5-1.2,1.1-1.9,1.3c-3.9,0.8-7.9,1.5-12.2,1.1c0-1.1,0-2,0-2.9c-0.4-10.6-1.5-21.1-4.6-31.3
		c-2.7-8.8-6.5-17-12.9-23.9c-7.4-7.9-16.7-12.5-26.9-15.4c-4.8-1.4-9.8-2.7-14.7-2.1c-5.8,0.8-11.5,2.1-17,4
		c-15.3,5.3-26.1,15.4-32,30.7c-4.2,10.9-6,22.2-6.6,33.8c-0.1,2.4,0,4.8,0,7.7c-4.4-0.5-8.4-0.9-12.3-1.5c-0.8-0.1-1.5-0.8-2.1-1.4
		c-4.4-4.7-9.9-7.6-15.9-9.4c-9.1-2.7-18.3-3.3-27.7-2.3c-0.8,0.1-1.7,0-2.6-0.1c-4.5-0.9-9-2.1-13.5-2.6
		c-5.6-0.5-10.6-2.3-14.6-6.1c-3.1-3-6.6-4-10.7-3.7c-2.3,0.2-4.6,0.1-6.9-0.5c-5.5-1.4-10.9-3-16.3-4.6c-5.5-1.6-11.1-3.5-16.9-3
		c-2.5,0.2-5,1.4-7.5,1.5c-4.1,0.2-7.6,1.9-11.1,3.7c-9.9,5.1-20.3,8.6-31.3,10.4c-7.1,1.2-13.5,3.7-18.6,8.9
		c-1.5,1.5-3,2.9-4.5,4.3c-2.4-2.1-4.5-4.1-6.9-5.9c-1.1-0.8-2.6-1.5-3.9-1.5c-5.1,0-9.2,6.9-6.9,11.5c0.5,0.9,1.1,1.8,1.6,2.8
		c0.8,1.6,1.4,3.3,0.9,5.4c-1.5-0.1-2.8-0.2-4.1-0.3c-1.8-0.2-3.6-0.4-5.4-0.4c-3.9-0.1-6.5,1.8-7.8,5.6c-1.6,4.7-1.1,8,2.2,10.4
		c2.7,2,5.6,3.8,8.5,5.4c2.6,1.6,4.2,1.3,6.5-0.9c0.6-0.6,1.2-1.3,1.9-1.9c2.7,3,1.5,5.9-0.9,7.7c-1,0.7-2.1,1.4-3.1,2
		c-2.8,1.6-5.4,3.3-7,6.2c-0.9,1.7-1.9,3.3-2.7,5.1c-1.8,4.2-3.8,8.2-6.7,11.7c-0.8,0.9-1.4,2.1-1.8,3.2c-1.4,4.1,1.1,7.9,5.4,8.2
		c3.1,0.3,5.7-0.9,7.7-3.2c1.8-2.1,3.4-4.4,5-6.7c2.4-3.2,4.5-6.7,7.2-9.7c4.1-4.7,9.3-7.2,15.7-6.1c0.7,1.8,1.3,3.6,2.2,5.2
		c1.3,2.2,2.8,4.4,4.3,6.5c1.9,2.6,3,5.5,3.3,8.8c0.2,2.4,0.7,4.8,1.7,6.9c1.5,3.4,4.8,4.4,8.2,2.9c2.9-1.2,4.5-3.5,5.5-6.4
		c1.4-4.2,1.4-8.4-0.6-12.4c-1.6-3.3-3.6-6.3-5.5-9.4c-1.7-2.7-2.1-5.5-0.1-8.1c3.3-4.1,5.7-8.6,7.5-13.5c1.6-4.6,5.5-6.3,9.8-6
		c8.6,0.5,16.7,2.1,24.3,6.9c9.4,6,20,9.4,31.6,9.2c0.8,1.3,1.7,2.8,2.6,4.3c9.8,15.6,23.3,26.3,41.1,31.5c0.7,0.2,1.3,0.8,1.8,1.3
		c2.5,2.6,5,5.3,7.6,7.9c0.9,0.9,1.2,1.8,1.3,3c0.1,2.7,0.3,5.4,0.8,8c2,10.2,6.5,19.5,11.4,28.5c6.3,11.4,13.9,21.9,22,32
		c5.8,7.2,8.6,15.1,8,24.3c-0.4,7.1-0.7,14.2-0.9,21.3c-0.1,2.9,0,5.7,0,8.6c-0.3,0.1-0.5,0.2-0.8,0.3c-0.9-0.6-1.7-1.1-2.6-1.7
		c-12.9-8.8-26.6-15.7-41.2-21c-16.5-5.9-33.5-9-51-9.7c-16.5-0.6-33.1-0.5-49.5-2.8c-2.3-0.3-4.7,0.2-6.6,1.6
		c-3,2.2-6.1,4.4-8.7,7.1c-11.5,11.7-14.7,25.5-10.2,41.1c2.7,9.5,9,16.6,17.1,22.1c9.1,6.1,17.4,13,24.5,21.3
		c3.3,3.9,6.7,7.6,10.2,11.4c6.2,6.8,12.8,13,20.4,18.2c9.8,6.6,20.7,11,31.5,15.5c16.9,7,34.1,13.1,50.5,21.2
		c7.8,3.8,15.3,8,21.9,13.8c6.9,6.1,11.9,13.2,12.8,22.8c0.5,5,1.2,10.1,2.1,15.1c2.7,14.2,7.9,27.5,16.3,39.4
		c6.9,9.9,15.1,18.1,28,20c3.8,0.5,7.1,0.3,10.1-1.7c2-1.3,3.4-1.1,5.5-0.1c5.2,2.6,10.7,3,16.2,0.9c5.2-2,9.7-5.1,13.5-9.1
		c15.6-16.5,22.6-36.8,25.1-58.8c1-8.5,2.2-16.6,8.3-23.1c2.9-3,6-6,9.4-8.4c10.5-7.6,22.2-13,34.1-18c14.1-5.9,28.3-11.4,42.4-17.3
		c12.2-5.1,24-11.1,33.6-20.4c6.3-6.1,12.3-12.5,18.1-19c7.4-8.3,15.3-15.9,24.6-22.1c2.9-1.9,5.6-4.1,8.2-6.4
		c12.3-10.5,15.8-29,10.5-43.5c-3.1-8.4-9-14.6-15.9-20.1c-3.5-2.8-7.3-3.9-11.8-3.2c-10.4,1.7-20.8,2.1-31.3,2.3
		c-12.4,0.2-24.8,0.6-37.1,2.6c-23.5,3.8-45.3,12.3-65.4,25.1c-2.7,1.7-5.4,3.5-8.4,5.4c-0.4-11.1-0.8-21.8-1.3-32.6
		c-0.3-7.5,2-14.1,6.5-20.1c5.6-7.5,11-15,16.3-22.7c7.7-11.1,14.1-22.9,17.8-36c1.1-4.1,2.3-8.1,1.7-12.5c-0.1-0.7,0.5-1.6,1-2.1
		c1.9-2,4-3.9,5.8-6c1.9-2.1,3.9-3.5,6.7-4.4c15.5-5.4,27.9-14.8,36.9-28.6c1.4-2.2,2.8-4.3,4.1-6.4c1.6,0,2.9,0.1,4.2,0
		c10.5-1.1,20.2-4.5,29-10.3c0.9-0.6,1.8-1.1,2.7-1.6c6-3,12.5-3.7,19-4.1c5.2-0.3,9.1,1.8,10.8,6.4c1.8,4.7,4,9.1,7.2,13.1
		c1.8,2.2,1.9,4.8,0.4,7.3c-1.2,2.1-2.6,4.1-3.9,6.1c-2.5,3.8-3.8,8-3.5,12.5c0.3,4.2,1.8,7.9,5.8,10c3.8,2.1,7.7,0.7,9.2-3.3
		c0.6-1.7,0.9-3.6,1-5.4c0.2-3.4,1.3-6.3,3.2-9.1c2.6-3.9,5.7-7.5,6.6-12.3c4.4-0.7,8.5,0,11.8,2.8c2.9,2.4,5.5,5.3,7.9,8.3
		c2.3,2.9,4.2,6.2,6.4,9.2c1.7,2.4,3.7,4.4,6.7,5.2c2.8,0.7,5.4,0.3,7.3-2C612.7,139.7,612.3,137.2,611.3,134.8L611.3,134.8z
		 M338.8,393.2C338.8,393.2,338.8,393.2,338.8,393.2c-3.8,5.3-6,11.3-8,17.5c-3.5,10.8-8.8,20.6-14.9,30.1c-3.2,5-6.2,10.1-9.3,15.1
		c-7.3-11.3-15.9-22.1-21.2-34.9c-1.7-4.1-3.2-8.2-4.8-12.3c-1.1-2.8-1.9-5.6-3.2-8.3c-1.2-2.6-2.7-5-4.3-7.9
		c4.2-0.1,7.8-1.6,11.3-3.5c7.9-4.2,16.5-5,25.2-4.6c6.9,0.3,13.4,1.9,19.5,5.2C332,391.3,335.3,392,338.8,393.2L338.8,393.2
		L338.8,393.2C338.7,392.9,338.8,393.1,338.8,393.2C338.7,393.2,338.7,393.2,338.8,393.2L338.8,393.2z"/>
	<path class="st1" d="M273.5,324.4c0.3,0,0.6-0.1,0.8,0c9.2,4,18.4,8,27.6,12.1c1.9,0.9,3.9,1.7,5.8,2.6c1.5,0.7,2.8,0.6,4.2-0.5
		c4.7-4,10.1-6.9,15.6-9.7c3.8-1.9,7.5-3.9,11.2-5.9c0.4-0.2,0.9-0.2,1.3-0.3l-0.1,0c-1.3,1.9-2.6,3.8-3.8,5.7
		c-2.4,3.8-4.8,7.6-7.2,11.5c-0.4,0.6-0.5,1.3-0.8,1.9c0.2,0.1,0.3,0.2,0.5,0.3c0.5-0.7,1.1-1.4,1.6-2.2c8.8-12.4,18.2-24.3,29.1-35
		c25.7-25.2,56-41.8,91.2-49.3c10.4-2.2,20.9-3.3,31.4-3.6c9.6-0.3,19.2-0.5,28.8-1c4.2-0.2,8.4-0.8,12.6-1.5c4.9-0.9,9,0,12.8,3.4
		c4.9,4.5,9.6,9.1,12.3,15.4c6.5,15.3,1.9,32.8-11.3,42.9c-1.9,1.5-3.9,2.8-5.9,4.1c-11.2,7.2-20,17-28.6,27
		c-7.1,8.4-14.5,16.5-23.5,22.8c-8.1,5.7-17.3,9.4-26.2,13.8c-4.3,2.1-7.3,1.6-11.1-1.2c-9.8-7.5-17.9-16.2-22.5-27.9
		c-2.3-5.8-3.3-11.8-2.8-18.1c0.2-1.8,0.7-3.3,1.9-4.7c10.3-12.2,22.6-21.9,36.4-29.8c2.8-1.6,5.5-3.2,8.4-4.4
		c5.4-2.2,9.2,0.1,9.4,6c0.1,3.5-0.6,7-1,10.6c-0.5,3.6-1,7.2-1.6,10.8c0.2,0,0.4,0.1,0.6,0.1c0.7-2.7,1.5-5.4,2-8.1
		c0.9-4.8,1.9-9.6,2.1-14.5c0.3-6.9-5.2-10.6-11.7-8.2c-7.5,2.7-14.1,6.9-20.7,11.3c-14.9,10-26.7,23-37.3,37.4
		c-7.1,9.7-14,19.5-22.3,28.3c-2.4,2.5-5,4.8-7.5,7.2c-3.1,3-6.2,6-9.2,9.1c-1.5,1.6-3.3,2.6-5.5,2.8c-3.8,0.3-7.7,0.5-11.5,1
		c-1.5,0.2-3.1,0.6-4.3,1.5c-2.9,2.1-6,1.8-9,0.9c-2-0.6-4.1-1.2-5.9-2.3c-9-5.2-18.8-5.8-28.8-5.2c-2.3,0.1-4.6,0.6-6.9,0.8
		c-4,0.4-7.6,1.8-11.1,3.7c-3.5,1.9-7,3.7-11.1,3.6c-1.3,0-2.7-0.3-3.8-0.9c-3.4-2-7-2.7-10.8-2.8c-10.3-0.2-9.3-0.4-15-6.3
		c-3-3.1-6.3-5.9-9.4-8.9c-9.1-8.7-16.4-18.8-23.8-28.9c-7.5-10.2-15.1-20.1-24.5-28.7c-9.6-8.8-20.2-16.2-32-22
		c-1.6-0.8-3.2-1.4-4.8-1.8c-6-1.6-10.9,1.8-11.2,8c-0.1,1.9,0.2,3.9,0.5,5.7c1.1,5.5,2.3,10.9,3.5,16.3c0.1,0.3,0.2,0.6,0.4,0.9
		c0.2,0,0.4-0.1,0.6-0.1c-0.4-2.7-1-5.3-1.3-8c-0.6-4.1-1-8.2-1.4-12.3c-0.1-0.6,0-1.2,0.1-1.7c0.7-5.7,4.4-7.9,9.6-5.4
		c17.3,8.4,32.6,19.6,44.8,34.6c0.8,1,1.4,2.3,1.6,3.6c1.1,6.1-0.2,12-2.2,17.8c-4.6,12.6-13.2,21.8-23.9,29.6
		c-3.1,2.2-5.6,2.5-9.1,0.9c-10.3-4.8-20.6-9.4-29.8-16.2c-8.2-6.1-14.8-13.7-21.4-21.3c-7-8.1-14.1-16.3-22.8-22.7
		c-3.3-2.4-6.8-4.7-10.2-7.1c-15.3-10.6-19-31.3-11.2-46c3.4-6.4,8.6-11.3,14.4-15.5c2.6-1.9,5.5-1.6,8.3-1.2
		c11.9,1.9,23.9,2.2,35.9,2.3c26.3,0.2,51.5,5.1,75.5,16.1c21.4,9.9,40.4,23.2,57,40c9.7,9.8,18,20.7,26,31.9c0.5,0.8,1.1,1.5,2,2.1
		c-0.3-2.2-1.7-4-2.8-5.9c-1.1-2-2.4-3.9-3.6-5.9C276.1,328.2,274.8,326.2,273.5,324.4L273.5,324.4L273.5,324.4z M191.1,158.5
		c0.3,5.6,1.6,10.4,3.2,15c4.9,13.6,12.4,25.8,20.8,37.4c4.2,5.8,8.6,11.4,12.7,17.1c3.8,5.2,5.4,11.2,5.4,17.6
		c0,6.1-0.3,12.1-0.6,18.2c-0.1,1.5,0.4,2.5,1.6,3.4c5.9,4.5,12.3,7.9,19.3,10.1c1.4,0.5,2.9,0.6,4.6,1c-0.3-1.2-0.6-1.9-0.8-2.7
		c-1.5-6.7-3.4-13.4-4.5-20.2c-2-12.6-4.1-25.2-7.4-37.5c-2.8-10.5-6-20.8-9.3-31.1c-5-15.9-13.9-29.2-27.3-39.4
		c-6.7-5.1-13.4-10.4-19.9-15.8c-13.1-11-22.1-24.7-26.7-41.2c-3.1-11,0.2-18.7,10.4-23.9c1.7-0.9,3.5-1.6,5.3-2.3
		c0.9-0.4,1.9-0.7,3.3-1.2c-1.8-0.3-3-0.7-4.2-0.8c-6.3-0.4-12.7-0.7-19-1.2c-3-0.2-6.1-0.9-9-1.5c-0.9-0.2-1.7-0.9-2.9-1.6
		c6.2,0.2,11.7,0.4,17.2,0.6c-1.9-1.9-3.8-3.2-5.6-4.7c-2-1.6-4.1-2.2-6.7-2c-2.8,0.2-5.6,0.3-8.3-0.3c-5.8-1.2-11.5-2.9-17.2-4.5
		c-4.6-1.3-9.2-2.5-14.1-2.7c-6.2-0.2-10.2,2.4-12.5,8.2c-2.5,6.3-4.5,12.6-5.8,19.3c-2,10.8,2.9,21.4,12.5,26.4
		c2.6,1.3,5.2,2.6,7.8,3.7c5.7,2.5,11.7,3.5,18.1,4.2c-0.7-1.6-1.3-2.8-1.8-4.2c-0.5-1.4-0.9-2.8-1.3-4.2l0.8-0.3
		c0.9,1.4,1.8,2.8,2.5,4.3c7.8,15.5,19.4,27.3,34.7,35.4c2.1,1.1,4.4,2,6.7,3c-2.7-5.3-5.8-10.1-7.3-15.6c1.1,1,1.9,2.2,2.7,3.3
		c9.2,13.9,20.2,25.9,34.2,35c4.7,3,9.5,5.8,14.3,8.7c0.5,0.3,0.9,0.8,1.3,1.1c-5.4-0.6-10.1-2.9-15.3-5.6c0.6,1.8,1,2.9,1.4,4.1
		c6.2,15.7,15.3,29.4,27.7,40.9c1.3,1.2,2.7,2.5,3.8,4.7c-3-0.9-4.8-2.4-6.5-4.1c-14.4-13.2-25.2-28.6-30.6-47.6
		c-0.1-0.4-0.4-0.9-0.7-1.2C196.2,162.2,193.9,160.6,191.1,158.5 M430.6,62.7c3.9,1.8,7.4,3,10.5,4.8c5.1,2.9,8.8,7,9.4,13
		c0.3,3,0.1,6.2-0.6,9.1c-4,15.6-12.1,28.8-24.1,39.5c-6.6,5.9-13.6,11.3-20.6,16.6c-13.3,10.2-23.2,22.9-28.6,38.9
		c-2.8,8.4-5.5,16.8-7.9,25.3c-3.7,13-6.4,26.3-8.5,39.7c-1.3,7.9-3,15.8-4.6,23.7c-0.3,1.6-0.9,3.1-1.4,4.8c0.6,0,1,0.1,1.4,0
		c8.4-2.1,16-5.9,22.8-11.3c1-0.8,1.1-1.7,1.1-2.8c-0.2-3.9-0.4-7.9-0.5-11.8c-0.3-6.1-0.5-12.2,2.2-17.9c1.6-3.5,3.7-6.7,5.8-9.9
		c6.1-8.8,12.6-17.2,18.5-26.1c6-9.2,10.9-19,14-29.6c0.9-3.2,1.7-6.4,1.6-10.2c-1.1,0.8-1.9,1.5-2.7,2c-3.1,1.9-4.9,4.5-6.1,8.1
		c-4.9,14.2-12.4,26.8-23,37.5c-3,3-6.1,5.8-9.3,8.6c-0.9,0.8-2,1.1-3,1.7c-0.2-0.2-0.3-0.4-0.5-0.7c1.5-1.6,3-3.1,4.5-4.7
		c2.7-2.8,5.6-5.5,8.1-8.5c8.1-9.6,14.5-20.3,19-32.1c0.4-1,0.6-2,1.1-3.5c-5.3,2.6-9.8,5.1-15.2,5.5c10.2-6.3,20.5-12.4,29.4-20.6
		c8.9-8.2,16.2-17.7,23.2-27.6c-1.7,5.5-4.5,10.4-7.5,15.2c1.1-0.1,2-0.4,2.8-0.7c9.3-4,17.3-9.9,24.4-17.1
		c6.1-6.2,11-13.3,14.8-21.1c0.6-1.2,1.4-2.2,2.1-3.3c0.3,0.1,0.5,0.3,0.8,0.4c-1,2.7-2,5.4-3.1,8.4c0.7-0.1,1.2-0.1,1.6-0.1
		c9.2-1.2,18-4.1,26-8.9c8.1-4.9,11.5-12.6,11-21.7c-0.5-9.3-3.7-18-7.8-26.3c-1.2-2.4-3-4.1-5.7-4.3c-2.8-0.2-5.6-0.6-8.3-0.1
		c-5.4,1-10.6,2.4-15.9,4c-6.9,2-13.7,3.6-21,3.1c-1.2-0.1-2.6,0-3.6,0.5c-2.9,1.7-5.6,3.7-8.4,5.5c0,0.2,0.1,0.4,0.2,0.5
		c5.5-0.2,11.1-0.4,17-0.6c-2.1,1.7-4.2,2.4-6.3,2.6c-4.6,0.4-9.2,0.4-13.8,0.8C440.8,61.7,435.9,62.2,430.6,62.7"/>
	<path class="st2" d="M346.3,80c0,9-0.4,17.4-4.6,25.1c-3.3,5.9-8.3,9.5-15.1,10.1c-2.7,0.2-5.4-0.3-7.1-2.8c-1.7-2.4-1.3-4.9,0-7.3
		c2.7-5.2,6.8-9.3,10.8-13.4c4.1-4.3,9-7.8,14.1-10.8C344.9,80.6,345.4,80.4,346.3,80 M266.1,79.9c0,3.5-0.2,6.5,0,9.6
		c0.5,6.4,1.8,12.6,5.8,17.8c3.5,4.7,7.9,7.8,14,7.8c5.3,0,10.6-3.5,6.3-10.8c-0.2-0.3-0.4-0.7-0.6-1c-1.9-2.5-3.8-5.1-5.9-7.5
		C280.4,89.4,273.9,84.3,266.1,79.9"/>
	<path class="st3" d="M442.2,75.6c-12.6,14.1-19.9,30-22.1,48.5c-1.5-1.1-2.8-2-4.1-3c-7.3-5.3-15.1-9.5-24.1-11.1
		c-1.8-0.3-3.6-0.4-5.4-0.4c-1.3-0.1-1.9-0.6-1.8-2c0.5-8,2.8-15.2,7.9-21.5c0.6-0.7,1.5-1.2,2.3-1.6c12.6-5.8,25.9-8.9,39.8-9.3
		C436.9,75.1,439.2,75.4,442.2,75.6 M227.4,109.3c0.1-8-2.2-14.8-6.1-21.2c-1.3-2.1-3.2-3.5-5.5-4.4c-9.7-4.1-19.7-7-30.2-8
		c-5-0.5-10.1-0.1-15.7-0.1c12.5,14.1,19.8,30,22.1,48.5C202.8,115.9,213.7,109.4,227.4,109.3 M416.8,125c-0.2-0.3-0.4-0.6-0.6-0.8
		c-7.5-6-15.8-10.4-25.4-12.3c-4.8-0.9-9,0.2-12.9,3.3c-5.8,4.8-10.5,10.3-13.8,17.1c-0.9,1.9-0.9,3.2,0.2,4.9c4.1,7,8,14,11.9,21.1
		c0.7,1.2,1.3,2.5,2.1,4.1C388,146.6,400.2,133.8,416.8,125 M233.7,162.3c5.2-9.4,10.3-18.5,15.3-27.5c-3.2-7.6-8.2-13.9-14.6-19.2
		c-4.3-3.6-8.9-4.4-14.2-3.3c-9,1.9-16.8,6.3-24.1,11.8c-0.3,0.2-0.6,0.7-0.8,0.9C211.8,133.8,224.1,146.4,233.7,162.3 M232.6,171.7
		c7.8,14.8,11.7,31,16.2,47.4c4-2.1,8-1.8,12.1-1.5c4.1,0.4,7.8,2,10.9,5.1c-0.6-9.6-1.1-18.8-1.7-28c0-0.8-0.2-1.6-0.5-2.2
		c-2.9-6.4-6.8-12-12.3-16.4c-6.5-5.2-13.9-8.3-22.2-9.1C234.1,168.5,233.4,170,232.6,171.7 M339.9,44.7c1.9-7.5,2.7-15,3-22.6
		c0.1-1.9-0.6-3.2-2-4.4c-8.1-7.2-17.7-11.3-28.2-13.6c-1.7-0.4-3.5-0.6-5.4-0.9c-0.1,1.1-0.1,1.7-0.1,2.4
		c-0.1,6.2,0.1,12.3-0.2,18.4c-0.1,3.1,0.9,5.4,2.9,7.5c0.7,0.7,1.4,1.4,2.1,2c5.9,4.2,12.1,7.8,18.9,10.3
		C333.6,44.7,336.6,45.3,339.9,44.7 M272.3,44.9c1.8-0.1,3.5,0,5.2-0.3c8.5-1.8,15.7-6.1,22.4-11.3c3.6-2.8,5.8-6.6,5.2-11.5
		c-0.2-1.6,0.1-3.3,0.1-4.9c0-4.6,0-9.2,0-14c-3.4,0.8-6.8,1.3-10,2.3c-8.9,2.6-17.3,6.4-24.2,12.7c-1.2,1.1-1.8,2.3-1.7,4
		C269.5,29.5,270.2,37,272.3,44.9 M308.9,168.1c0.4,3.4,0.7,6.5,1.2,9.6c0.1,0.7,0.8,1.5,1.4,2c4,2.6,5.6,6.4,5.6,11
		c0,0.8,0.1,1.6,0.1,2.6c2.5-1.2,4.8-2.2,7.1-3.2c0-5.2-2.9-9.5-4.3-14.5c0.7,0.3,0.9,0.3,1,0.4c0.4,0.3,0.7,0.7,1,1.1
		c2.9,3.8,4,8.3,4.5,12.9c0.1,0.9-0.6,1.9-1,3c1-0.2,2.2-0.5,3.4-0.8c-0.2-7.2-3.2-13.2-6-19.3c5.4,5.2,7,12.1,8.8,18.8
		c4.5,0.4,8.8,0.8,13.3,1.2c0.5-15-1.2-29.8-5.5-44.7c-0.5,0.5-0.8,0.7-1.1,0.9c-4.4,4.4-8.8,8.8-13.3,13.2c-3.1,3-6.8,4.6-11,5.3
		C312.6,168,310.9,168,308.9,168.1 M278.4,255.7c4.8-3,9.7-4.5,15.2-4.3c5.4,0.2,10.3,1.9,15.1,4.8c0.3-7.8,0.5-15.2,0.7-22.7
		c0-0.7-0.7-1.4-1.2-2c-1.5-1.8-3.1-3.6-4.7-5.4c-0.5-0.6-0.8-1.5-1.4-1.7c-2.8-0.9-5.7-1.6-8.9-2.6c0.9,3,3.2,4.8,3,7.7
		c-1.8-1.9-3.2-4-4.8-6c-0.5-0.7-1.4-1.6-2-1.6c-4.9-0.1-9.6,0.9-14.1,3.4C276.2,235.4,277.3,245.4,278.4,255.7 M376.4,164.9
		c-4.2-9-8.8-17.6-13.9-25.8c-1.4-2.2-1.6-2.3-3.8-1c-4.3,2.4-8.2,5.3-11.4,9.2c-1.4,1.7-2.8,3.3-4.3,5c3.6,12.9,4.4,26.3,4.5,40.4
		c2.2-3.2,4-5.9,5.8-8.6C359.2,175.8,365.9,168.4,376.4,164.9 M306.8,32.1c0,1.1,0,1.9,0,2.8c-0.2,9.8-0.4,19.6-0.6,29.4
		c0,1.7,0.5,3.1,1.8,4.3c4.5,4.3,10,6.2,16,6.9c0.8,0.1,1.8-0.1,2.5-0.4c0.8-0.4,1.7-1,2-1.7c2.8-6.1,5.5-12.2,8.1-18.4
		c1-2.4,1.7-5,2.5-7.5C326.5,46.1,316.8,39.5,306.8,32.1 M325.5,222.6c-4.6,1.1-9.5,0.5-11.5,5.7c-0.2,0.5-0.8,0.8-1.1,1.3
		c-0.5,1-1.1,2-1.2,3c-0.3,5.1-0.4,10.2-0.5,15.3c-0.1,2.9,0,5.9,0,9.1c9.6-5.1,19.3-5.5,29.5-2.6c1-9.6,1.9-18.9,2.8-28.3
		c-5.3-1.6-10.2-3.3-15.4-3.3c-1.8,2.5-3,5.2-6,6.4C323.1,227.2,324.2,225.2,325.5,222.6 M298.4,175.8c-1,4.9-4,9.1-3.9,14.4
		c2.4,1.1,4.7,2.1,7,3.1c0.1-0.5,0.2-0.7,0.2-0.9c-0.5-5,0.9-9.3,5.1-12.4c0.4-0.3,0.8-0.9,0.8-1.4c-0.2-3.6-0.5-7.2-0.8-10.9
		c-1.3,0.1-2.3,0.1-3.2,0.2c-7,0.6-13.1-1.5-18.1-6.4c-3.8-3.8-7.5-7.7-11.3-11.5c-0.4-0.4-0.9-0.8-1.6-1.4
		c0.3,14.3-0.4,28.2,0.3,41.9h14.4c2.1-6.4,3.4-12.9,8.6-17.5c-0.1,1.2-0.5,2.2-1.1,3.1c-2.4,4.1-3.8,8.6-4.7,13.2
		c-0.4,1.8-0.3,1.8,1.9,1.8C292.9,185.6,293.7,179.8,298.4,175.8 M273.1,47.6c0.1,0.5,0.1,0.8,0.3,1.2c3.1,7.6,6.2,15.2,9.3,22.9
		c1.5,3.9,3.4,4.2,7.3,3.6c4.7-0.7,8.6-3.2,12.4-5.8c1.4-0.9,1.9-2.1,2-3.8c0.1-6.9,0.4-13.8,0.5-20.7c0.1-4.3,0-8.6,0-12.8
		C295.3,39.6,285.7,46.4,273.1,47.6 M305.6,114.4c-0.2-0.1-0.3-0.1-0.5-0.2c-5,15.3-10,30.7-15,46c7.2,5.9,26.1,5.8,31.9-0.1
		C316.5,144.9,311.1,129.7,305.6,114.4 M376.9,166.4c-2.7,1.5-5.4,2.7-7.9,4.4c-5.7,3.8-10,8.9-13.8,14.5c-2.2,3.2-4.2,6.7-6.5,9.8
		c-1,1.4-1.3,2.6-1.3,4.2c0,3.7-0.3,7.5-0.4,11.2c-0.2,3.5-0.4,7-0.6,10.9c0.7-0.7,1-1,1.4-1.3c4.8-4.4,9.9-8.2,16.4-9.8
		c1.6-0.4,2-1.5,2.4-2.8c3.4-11.9,7-23.7,12.4-34.9c0.3-0.5,0.4-1.3,0.2-1.8C378.6,169.5,377.8,168.2,376.9,166.4 M235.8,164.8
		c7.3,0.8,13.6,3.1,19.4,6.9c5.8,3.8,10.4,8.8,14.3,14.6c0.3-6.7,0-13.2,0.5-19.7c0.2-3.8-0.6-7.1-2.1-10.4
		c-3.7-8-9.3-14.2-17.3-18.5C245,146.4,240.2,155.3,235.8,164.8 M287.4,494.2c0.2-0.1,0.5-0.2,0.7-0.4c0-0.6,0-1.1,0-1.7
		c0.2-4.6-0.1-9.3,0.6-13.8c1.4-8.8,5.5-12.6,14.1-14.3c0.3,0,0.5-0.2,0.7-0.2c-3.5-2.3-7.1-4.4-10.5-6.9
		c-6.1-4.5-11.1-10-15.9-15.8c-1.7-2-2.9-2.1-4.7-0.3c-0.8,0.8-1.4,1.8-1.9,2.8c-1.8,3.8-2.1,7.9-2,12.1c0,1.2,0.2,2.5,0.7,3.6
		c3.6,7.7,7.1,15.5,11,23.1C282.3,486.5,285,490.3,287.4,494.2 M324.5,494.6c0.9-1.2,1.8-2.4,2.6-3.7c5.9-8.7,9.9-18.4,14.4-27.8
		c2.6-5.4,2.7-10.7,1.3-16.2c-0.5-1.8-1.3-3.6-2.3-5.2c-1.8-2.7-3.5-2.7-5.7-0.3c-5.3,6.1-11.1,11.7-18.2,15.8
		c-0.4,0.2-0.7,0.6-1.3,1.1c4.5,4.8,7.3,10.4,8.5,16.8C325,481.5,324.8,487.9,324.5,494.6 M306.8,466c-2,0.2-4.1,0.2-6,0.6
		c-4.9,1-7.5,4.5-9.1,8.8c-2.5,7.1-2.3,14.3-1.1,21.6c0.1,0.6,0.3,1.4,0.7,1.9c3.6,4,7.5,7.6,11.6,10.8c0.5-0.2,0.7-0.2,0.8-0.3
		c0.2-0.1,0.5-0.3,0.7-0.5c4.7-3.7,6.4-8.9,6.5-14.5c0.1-4.9-0.1-9.8-0.7-14.6C309.9,475.2,309.1,470.6,306.8,466 M281.5,283
		c8.5-5.4,17.2-4.5,26.2-0.4c0.3-8.2,0.5-16,0.8-24c-2.4-1.1-4.7-2.2-7-3.1c-3.6-1.5-7.4-2-11.3-1.6c-3.8,0.3-7.3,1.4-10.3,3.9
		c-0.9,0.8-1.2,1.6-1,2.8C279.8,267.9,280.7,275.3,281.5,283 M340.2,257.2c-0.5-0.4-0.6-0.5-0.8-0.6c-9.4-3-18.5-2.4-27.3,2.3
		c-1.3,0.7-1.5,1.6-1.5,2.8c-0.1,4.3-0.2,8.6-0.3,13c0,2.8,0,5.5,0,8.5c8.7-4,17.7-5.3,27.3-2.7
		C338.5,272.6,339.4,264.9,340.2,257.2 M255.5,253.4c7.2-2.3,13.7-1.6,20,2.9c-0.3-2.4-0.5-4.1-0.7-5.8c-0.7-7-1.6-13.9-2.1-20.9
		c-0.2-3-1.4-4.9-3.7-6.6c-5.4-3.9-11.3-4.5-17.5-2.8c-2.1,0.6-2.2,1.1-1.7,3.5c0.9,4,1.7,8.1,2.5,12.1
		C253.4,241.5,254.4,247.3,255.5,253.4 M280.2,306.2c-0.4-6-0.9-12.1-1.3-18.2c-0.1-1.4-0.8-2.3-2.1-3.1c-8.1-4.6-16.6-3.7-25.3-2.5
		c-1.8,0.2-2.6,1.4-2.5,3.2c0.1,3.2,0.4,6.3,0.3,9.5c-0.1,1.5,0.3,2.5,1.4,3.4c2,1.8,3.9,3.7,5.7,5.7c0.9,1,1.8,0.9,3.1,0.7
		c3.3-0.5,6.7-1.2,9.9-1C272.9,304.3,276.4,305.4,280.2,306.2 M324,158.5c0.4-0.2,0.7-0.2,0.9-0.4c7.6-7,14.3-14.7,19.6-23.6
		c0.7-1.2,0.6-2.1-0.3-3c-2.9-2.9-5.8-5.8-8.4-8.3c-2.7,0.5-5,0.9-7.2,1.3c-0.6,0.1-1.2,0.2-1.6,0.4c-4.3,2.4-7.9,5.5-10.1,10
		c-0.5,0.9-0.8,2.3-0.4,3.2C318.8,144.8,321.5,151.6,324,158.5 M276.1,122.4c-2.6,2.9-5.1,5.8-7.7,8.6c-1.1,1.2-1.4,2.2-0.5,3.8
		c5.1,8.5,11.3,16,18.7,22.5c0.4,0.4,0.9,0.6,1.4,1c0.3-0.4,0.5-0.5,0.6-0.8c2.3-6.6,4.5-13.3,6.8-19.9c0.5-1.5,0.1-2.8-0.7-4.1
		c-2.2-3.6-5.2-6.4-8.9-8.4c-0.7-0.4-1.6-0.6-2.4-0.8c-2.1-0.4-4.3-0.8-6.5-1.2L276.1,122.4L276.1,122.4z M310.7,336.1
		c0.2,0.1,0.4,0.2,0.6,0.3c7.2-6.5,15.9-10.6,24.6-14.5c-0.2-5.3-0.4-10.4-0.6-15.6c-2.4-0.5-4.7-1.1-7.1-1.4
		c-5.7-0.7-11.1,0.2-16.1,3c-1.5,0.9-2.5,1.9-2.2,3.9c0.2,1.8,0,3.6,0.1,5.5C310.2,323.6,310.5,329.9,310.7,336.1 M301.3,459.9
		c-0.3-0.6-0.6-1.3-1-1.9c-2.9-3.7-5-7.6-5.8-12.4c-0.2-1.1-0.8-2.2-1.4-3.1c-6.2-9.3-11.2-19.2-14.9-29.8c-1.4-4.2-3-8.3-4.8-12.3
		c-1.3-3-3.2-5.5-6.4-7.6c0.3,3.2,0.5,6,0.8,8.7c1.2,12.3,4.4,24.1,9,35.6c0.4,0.9,0.9,1.7,1.4,2.5c4.5,5.5,9.4,10.7,15,15.1
		C295.8,456.6,298.6,458.2,301.3,459.9L301.3,459.9L301.3,459.9z M307.5,284.9c-1.3-0.5-2.5-1-3.6-1.3c-6.9-2.3-13.7-2.6-20.2,1.5
		c-1.5,0.9-2.1,2-2,3.7c0.4,4.7,0.7,9.4,1.1,14.1c0.1,1.5,0.2,2.9,0.3,4.6c8.1-3.4,16-4.2,24.4-0.8L307.5,284.9L307.5,284.9z
		 M423.1,127.6c0.4,0.1,0.8,0.1,1.1,0.2c3.1-3.4,6.3-6.7,9.1-10.3c6.6-8.4,11.5-17.7,14.3-28c1.1-4.1,1.3-8.2-0.4-12.1
		c-0.7-1.8-1.6-1.9-3-0.5c-4.2,4.5-7.9,9.4-11,14.7c-6,10.2-9.5,21.1-11.1,32.7C422,125.4,422.7,126.5,423.1,127.6 M188.4,127.6
		c1.6-0.9,1.9-2.1,1.6-3.7c-0.4-1.6-0.4-3.2-0.8-4.8c-3.2-15.8-9.9-29.8-20.9-41.7c-1.9-2.1-2.8-2-3.8,0.6c-1.5,4-1,8,0.1,11.9
		c2.4,8,5.7,15.7,10.4,22.7C178.9,118.1,183.3,123.2,188.4,127.6 M285,326.3c7.8,3.6,15.7,7.2,23.8,10.9c-0.5-9.4-0.9-18.5-1.4-27.8
		c-8.3-3.4-16.2-3.3-23.9,1.4C284,316.1,284.5,321.1,285,326.3 M175.8,72.7c14.9,0.6,28.7,3.5,41.9,9.5c3.3-4.1,8.9-5.4,11.7-10.7
		c-3.7-1.8-6.9-3.8-10.4-5c-8.4-3-17.2-3.6-26.1-2.7c-4.7,0.5-9.3,1-12.5,5.2C179.4,70.3,177.7,71.2,175.8,72.7 M310.1,306.8
		c3.9-2.7,8-4,12.4-4c4.3,0.1,8.5,0.3,13,0.5c0.5-6.5,1.1-13.4,1.6-20.3c-9.5-2.7-18.4-1.9-27.1,2.8V306.8L310.1,306.8z M394.5,82.2
		c13.2-6,27-8.9,41.5-9.4c-2.6-2.3-5-4.2-7.1-6.3c-1.1-1.1-2.1-1.8-3.7-1.9c-3.5-0.2-7-0.9-10.6-1c-9.3-0.2-18.4,1-26.8,5.3
		c-1.7,0.8-3.2,2-5,3.1C385.8,76.7,391,78.2,394.5,82.2 M315.1,455.5c0.9-0.4,1.3-0.5,1.6-0.7c6.6-4.2,12.3-9.5,17.3-15.5
		c0.8-0.9,1.4-2.1,1.8-3.2c4.4-11.2,7.3-22.8,8.7-34.8c0.3-2.8,0.4-5.6,0.6-8.5c-0.2-0.1-0.4-0.2-0.6-0.3c-1.2,1.3-2.7,2.4-3.5,4
		c-1.9,3.4-3.8,6.9-5,10.6c-3.8,11.7-8.6,22.8-15.5,33C317.4,444.8,317.4,450.2,315.1,455.5 M345.4,492.4
		c6.4-10.2,10.9-21,13.7-32.8c-2-0.6-3.8-1.5-5.7-1.6c-4.5-0.4-7.7,0.2-9.4,4.9c-2,5.6-4.6,11-7.3,16.3c-2.6,5.1-5.6,10-8.6,15.4
		C333.7,492.3,339.4,491.8,345.4,492.4 M253.5,459.6c0,0.4-0.1,0.5,0,0.7c2.7,10.9,7,21.1,13.1,30.6c0.8,1.2,1.7,1.4,2.9,1.3
		c4.6-0.3,9,0.3,13.3,1.8c0.5,0.2,1,0.3,1.9,0.5c-2.4-4-4.9-7.5-6.8-11.4c-3.6-7.1-6.9-14.3-10.2-21.6c-0.8-1.8-1.9-2.7-3.7-3.2
		C260.3,457.2,256.9,457.9,253.5,459.6 M278.3,282.8c0-0.3,0-0.8,0-1.3c-0.6-6.4-1.5-12.8-1.9-19.2c-0.2-2.9-1.6-4.3-4-5.5
		c-5.4-2.7-10.7-3.4-16.4-0.8c1,7.5,2.7,14.8,5.1,21.8c0.4,1.2,1.3,1.3,2.3,1.3c1.7,0.1,3.5,0.1,5.1,0.5
		C271.8,280.6,275,281.7,278.3,282.8 M222.6,374.4c-5.6-4.2-10.8-8.2-16.1-12.3c-6.8,5.3-10.2,12-10.7,20.4c-0.1,1.4,0.6,2,1.8,2.6
		c3.2,1.5,6.4,3,9.6,4.5c1.5,0.7,3.1,1.4,4.9,2.2C213.4,384.7,216.2,378.8,222.6,374.4 M400.1,391.9c5.2-2.4,9.9-4.6,14.6-6.8
		c1.2-0.5,1.7-1.3,1.6-2.7c-0.2-5.6-2-10.7-5.4-15.2c-1.5-2-3.1-3.8-5.4-5c-2.7,2.1-5.3,4-7.9,6c-2.6,2-5.2,4-8,6.1
		C396.1,378.8,398.8,384.8,400.1,391.9 M364.9,212.7c-0.5,0.1-0.9,0.1-1.2,0.2c-6.1,2.1-11.5,5.2-15.8,10.1
		c-1.3,1.4-1.9,2.9-2.1,4.9c-0.4,5.1-1,10.3-1.5,15.4c-0.3,2.6-0.5,5.1-0.7,7.7c4.4-4.2,9-7.4,14.8-8.2
		C360.5,232.7,362.7,222.8,364.9,212.7 M345.3,22.9c-0.1,0.9-0.2,1.9-0.3,2.8c-0.9,6.5-1.6,12.9-2.7,19.4c-1,5.8,2,13.7,7.1,17.1
		c0.3-0.4,0.7-0.9,1-1.3c1.5-1.8,2.5-1.9,3.8,0c0.7,1.1,1.4,2.3,1.7,3.6c0.4,2,1.5,3,3.9,2.8C358.5,51.4,355.7,36,345.3,22.9
		 M266.9,22.8c-10.2,13.1-13.2,28.4-14.3,44.5c2.4,0.1,3.6-0.9,3.9-2.9c0.1-0.7,0.5-1.5,0.8-2.2c1.5-2.9,3-4.2,5.2-0.7
		c0.1,0.2,0.4,0.4,1,0.9c1.5-2.1,3.2-4.1,4.5-6.3c1.8-3.1,3-6.5,2.2-10.2C268.5,38.4,267.2,30.7,266.9,22.8 M306,69.5
		c0.1,13.6-0.6,26.4,0.7,40.1c1.3-1.1,2.2-1.7,2.9-2.6c1.1-1.6,2-3.3,3-4.9c4.3-6.8,8.9-13.4,12.2-20.8c0.5-1.2,1.1-2.3,1.9-3.8
		C318.6,77.6,312.2,74.7,306,69.5 M289.2,219.3c-0.3-0.7-0.8-1.4-1-2.2c-0.9-3.3-1.9-6.6-2.4-10c-0.5-2.9,0.7-4.1,3.5-4.9
		c3-0.9,6.1-1.7,9.1-2.5c0.9-0.2,1.7-0.6,2.5-0.9c-0.7-0.6-1.3-0.8-1.9-0.8c-2.9-0.1-5.8-0.2-8.6-0.3c-3.6-0.2-3.6-0.2-3.6-3.8
		c0-0.2-0.1-0.3-0.2-0.5c-3.6-1.1-9.7-0.9-13.7,0.5c0.1,9.7,0.8,19.3,1.8,28.8C279.8,221.4,284.3,220.4,289.2,219.3 M338.1,302.7
		c7.6-6.2,15.9-7.7,24.9-6.9v-17c-4.1,1-7.9,2.8-12.3,2.7c-0.1-2.2-1.7-2.5-3.4-2.6c-4.2-0.5-7.4,2.1-7.8,6.3
		c-0.1,1.5-0.4,3-0.5,4.6C338.7,293.8,338.5,297.9,338.1,302.7 M398,392.6c-0.4-1.8-0.8-3.7-1.4-5.5c-1.3-4-3.4-7.5-6.8-10.1
		c-1.4-1-2.5-1.1-3.8,0.1c-1.9,1.8-4,3.3-5.8,5.1c-2.9,2.8-5.7,5.6-8.7,8.5c4,3.7,6.7,7.7,7.5,12.9C385.4,400,391.5,396.4,398,392.6
		 M240.8,390.6c-4.9-4.5-9.5-8.8-14.2-13c-2.3-2-2.8-2-5.1,0.1c-4.5,4-6.5,9.3-7.2,15c6.3,3.7,12.5,7.3,18.8,11.1
		C234,398.5,236.6,394.5,240.8,390.6 M343.8,223.6c0.5-9.6,1.1-18.8,1.6-28c-4.6-1.1-8.7-2-13-1.4c-0.3,2.9-0.3,3-2.8,3.2
		c-1.7,0.1-3.5,0.1-5.2,0.2c-2.1,0.1-4.2,0.3-6.3,0.5c0.2,0.6,0.5,0.9,0.7,0.9c3.6,1,7.2,2.1,10.8,3.1c3,0.9,3.8,1.8,3.7,4.9
		c0,3.7-1.2,7.2-2.6,10.5c-0.4,0.9-0.8,1.9-1.2,2.9c2.6,0.5,4.9,0.8,7.1,1.3S341,222.9,343.8,223.6 M358.1,245
		c-4.7,1.2-8.4,3-11.4,6.3c-2.9,3.2-4.6,6.7-4.5,11.1c0,0.4-0.1,0.8-0.2,1.1c-0.6,5.1-1.2,10.2-1.8,15.8c3.7-2.5,7.3-2.8,11-1.7
		C354.9,267,356.5,256.2,358.1,245 M303.6,108.5c0.2-0.1,0.4-0.2,0.6-0.3V70.5c-5.7,4-11.3,7.4-18.2,7.3
		C290.3,89.1,297.7,98.4,303.6,108.5 M382.9,109.3c0.4-7.6,2.1-14.8,5.8-21.6c-7.1,2.9-13.6,7.2-21.5,7.5c-0.6,1.2-1.2,2.3-1.8,3.4
		c-0.2-0.1-0.3-0.1-0.5-0.2c0.2-1,0.4-2,0.6-3.1c-1-0.2-2.1-0.4-3.2-0.7c-0.6,3.4-1.3,6.6-1.9,9.8
		C369.2,108.8,377.5,110.1,382.9,109.3 M245.1,95.2c-8.1-0.2-14.5-4.7-21.6-7.4c3.9,6.7,5.4,14,5.9,21.4c5.7,1.2,15.7-1.1,22.5-4.9
		c-0.6-3.1-1.3-6.4-2-9.6c-1.3,0.3-2.2,0.5-3.2,0.7c0.3,1.1,0.5,2.1,0.8,3.2c-0.2,0.1-0.4,0.2-0.6,0.2
		C246.4,97.6,245.8,96.5,245.1,95.2 M266,451.6c1.2-6,1.7-11.8,7.7-14.6c-5.2-7.5-10.3-14.9-15.5-22.3c-3.1,1.4-5.1,3.6-6.4,6.5
		c-0.5,1.3-0.4,2.2,0.3,3.5c3,5.1,5.9,10.4,8.6,15.6C262.5,443.8,264.1,447.5,266,451.6 M354.5,414.5c-5.5,7.8-10.6,15.2-15.8,22.6
		c5.7,2.9,6.4,8.5,7.5,14.6c0.6-1.3,1-2.1,1.4-2.9c3.9-7.6,7.7-15.2,11.7-22.7c1.8-3.4,2-4.8-0.5-7.7
		C357.6,417,356.1,415.9,354.5,414.5 M312.4,506.1c2.2-1.8,4.4-3.5,6.5-5.3c1.7-1.4,2.9-3,2.9-5.3c0-2.1,0.6-4.2,0.8-6.3
		c0.6-6.6,0-13-2.2-19.3c-1.5-4.2-3.8-7.9-7.1-10.9c-1.1,0.5-2.1,0.9-3,1.3c-0.2,0.1-0.5,0.3-0.9,0.6c0.3,0.9,0.6,1.8,1,2.7
		c3.9,10.4,5.4,21.1,4.5,32.2C314.4,499.2,313.2,502.4,312.4,506.1 M67.8,93.4c-0.2-0.2-0.3-0.5-0.5-0.7c-4.7,1.7-9.4,3.2-13.9,5.2
		c-3.3,1.5-6.4,3.6-9.2,5.8c-3.5,2.7-4.9,6.7-6.2,11c1.5,0.2,2.7,0.4,3.6,0.6c0.8-1.1,1.5-1.9,2.2-2.7c0.2,0.1,0.4,0.2,0.6,0.3
		c-0.1,1.3-0.4,2.6-0.4,3.9c0,1.4,0.4,2.7,0.7,4.7c1-1.3,1.6-2,2.1-2.8c3.2-4.4,6.9-8.3,11.7-10.9c2.1-1.1,3.2-2.6,4-4.6
		C64,99.8,65,96.1,67.8,93.4 M574.3,114.6c-1.6-5.2-3.8-9.7-8.3-12.7c-6.5-4.3-13.5-7.1-20.9-8.8c1.8,3.8,3.4,7.7,5.3,11.4
		c0.6,1.1,1.6,2.2,2.7,2.8c4.6,2.7,8.6,6.2,11.7,10.5c0.7,1,1.6,2,2.4,3.1c2-2.7,0.7-5.6,0.9-8.3l0.7-0.1c0.6,0.9,1.3,1.8,1.9,2.7
		C571.7,115,572.9,114.8,574.3,114.6 M204.6,360.7c-3.2-3-6.1-5.8-9.4-8.8c-3.7,9-9.2,16.5-16.5,23.2c5,2.8,9.7,5.4,14.7,8.2
		C193.9,373.8,197.7,366.6,204.6,360.7 M417,351.9c-3.4,3.2-6.4,6-9.5,8.9c7.1,5.8,10.8,13.1,11.2,22.5c5.1-2.9,9.7-5.4,14.7-8.2
		C426.3,368.3,420.6,361,417,351.9 M343.8,494.6c-2.3,0-4.1-0.2-5.8,0c-6.3,0.7-12.2,2.1-16.6,7.3c-3.2,3.8-7.2,6.6-11.9,8.5
		c-0.5,0.2-0.9,0.5-1.7,1c3.8,1.7,7.1,2.4,10.8,2c4.4-0.5,8.3-2.4,11.9-4.8C335.7,504.9,340,500.3,343.8,494.6 M241.8,392.5
		c-3.4,3.2-5.5,6.7-6.6,10.8c-0.4,1.6,0,2.5,1.2,3.7c4,3.9,7.7,8,11.6,12c0.5,0.5,1,1.1,1.2,1.3c2.4-2.7,4.8-5.2,7.3-8
		C252,405.8,247.5,398.9,241.8,392.5 M370.1,392.2c-5.1,7-9.9,13.7-14.4,20c2.7,2.9,5,5.5,7.1,7.8c4.6-4.8,9.4-9.8,14.4-15.1
		C376.6,400.4,374.4,396.2,370.1,392.2 M250.5,132.9c2.4-3.4,4.6-6.3,6.8-9.4c0.3-0.4,0.3-1.1,0.2-1.6c-1.7-5-3.4-10.1-5.3-15.4
		c-5.5,3.6-11.7,4.7-18.1,5.5C241.3,117.6,246.6,124.5,250.5,132.9 M378.2,112c-2-0.3-4-0.6-5.9-0.9c-4.4-0.7-8.6-2.3-12.3-4.6
		c-1.8,5.2-3.5,10.2-5.2,15.2c-0.2,0.6-0.2,1.4,0,1.8c2.2,3.1,4.5,6.2,6.8,9.4c3.8-8.2,8.9-15,16.1-20.2
		C378,112.6,378,112.2,378.2,112C378.1,112,378.2,112,378.2,112z M230.9,168.3c0.3,0,0.6,0,0.8-0.1c0.2-1.2,0.8-2.6,0.5-3.7
		c-0.7-1.9-1.9-3.5-3-5.2c-7.5-11.9-17.4-21.4-29.1-29.1c-1.7-1.1-3.6-1.8-5.4-2.7c-1.5-0.7-2.7-0.1-3.4,1.2
		c-0.9,1.4,0.4,2.1,1.3,2.8c4.2,3.3,8.4,6.6,12.7,9.9c9.1,7,17.8,14.4,23.9,24.3C229.7,166.6,230.3,167.4,230.9,168.3 M421.4,129.5
		c-2.1-2.6-2.2-2.8-4.7-1.8c-1.8,0.7-3.5,1.6-5.1,2.7c-12.9,8.7-23.6,19.5-31.2,33.3c-1.1,2.1-1.1,2.4,0.9,4.4
		c6.1-10.6,15-18.7,24.6-26c4.4-3.4,8.8-6.8,13.2-10.3C420,131.2,420.7,130.3,421.4,129.5 M367.1,426.2c-3.3-1.5-4.2-1.3-5.9,1.3
		c-5.3,8.3-9.3,17.2-13.1,26.3c-0.3,0.6-0.5,1.3-0.9,2.5c4.5-1.5,8.4-0.7,12.4,0.8c0.4-2,0.8-3.7,1.1-5.5c0.6-4,1-8,1.5-12
		C362.9,434.8,364.6,430.3,367.1,426.2 M361.4,298.4c-6.4-1.3-12.3,0.2-17.9,3.3c-5.5,3-5.5,3.1-5.4,9.3c0,3.2,0.2,6.4,0.3,10.2
		c2.1-1.2,4.1-1.8,5.4-3.1C349.7,311.7,355.4,305.1,361.4,298.4 M265,455.8c-4.1-9.8-8.3-19.2-13.8-28.1c-1.8-2.9-2.4-3.1-5.9-1.6
		c0.3,0.6,0.5,1.2,0.9,1.7c2,3.2,3.1,6.8,3.7,10.5c0.3,2.3,0.4,4.6,0.7,6.9c0.6,3.9,1.2,7.8,1.8,11.6c2.4-0.5,4.3-1.2,6.3-1.3
		C260.7,455.3,262.7,455.6,265,455.8 M357.9,389.5c-3.2-0.2-6.2,0.1-9.2,1c-1.1,0.3-1.5,0.8-1.5,2c0.1,8.3-1.1,16.4-2.9,24.5
		c-1,4.4-2.2,8.7-3.5,13.6c0.9-1.2,1.5-1.9,2-2.6c2.4-3.4,4.6-6.8,7-10.2c1.5-2.1,2.5-4.1,2.8-6.8
		C353.5,403.8,355.3,396.7,357.9,389.5 M271.2,430.6c-0.2-1.3-0.3-2.6-0.6-3.9c-2-6.8-3.7-13.7-4.5-20.7c-0.5-4.8-0.9-9.7-1.4-14.7
		c-3.1-1.8-6.6-1.8-10.3-2c0.1,0.5,0.1,0.8,0.2,1c2.7,7.3,4.4,14.8,5.3,22.6c0.1,1,0.6,2,1.2,2.8c3.4,5,6.8,10,10.2,15L271.2,430.6
		L271.2,430.6z M300.7,511.2c-3.7-3.5-7.2-6.8-10.5-10.2c-1.7-1.8-3.6-3.2-5.9-4c-2.8-0.9-5.7-1.8-8.6-2.3c-2-0.4-4.1-0.1-6.6-0.1
		c5.8,7.4,12,13.5,20.5,16.8C293.5,513,297,512.1,300.7,511.2 M260,307.8c3.2,3.8,6.3,7.5,9.4,11.1c0.2,0.3,0.6,0.5,0.9,0.7
		c4,1.9,7.9,3.8,12.2,5.8c-0.7-5.6-1.4-10.8-2.1-15.8C273.8,306.5,267.2,305.3,260,307.8 M364.8,295.5c4.5-3.7,8.5-7.2,12.7-10.3
		c2.5-1.9,4.5-3.5,3.1-7c-0.2-0.6-0.1-1.3-0.1-2c-0.2-2.2-0.5-4.4-0.7-6.6c-5,3-9.7,5.8-14.3,8.6C365.2,283.8,365,289.4,364.8,295.5
		 M231.4,282.3c5.1,4.1,10.3,8.3,15.6,12.7v-16.6c-5-3-9.7-5.8-14.5-8.7C232.1,273.9,231.8,277.9,231.4,282.3 M219.5,83
		c8.1,3.5,15.1,8.9,24.6,10.1c-3.4-7.5-7-14.2-12.6-19.2C227.4,77,223.6,79.9,219.5,83 M368.1,93.1c9.4-1.1,16.5-6.5,24.6-10
		c-4.2-3.2-8-6.2-11.9-9.2C375.2,79,371.5,85.6,368.1,93.1 M351.9,103.6c-3.4,7.3-8.1,13.5-14.5,18.3c3.2,3.1,6.1,5.9,9.2,8.8
		c4.4-8.3,7.6-16.7,9.7-25.5C354.8,104.6,353.5,104.1,351.9,103.6 M265.4,130.2c3.1-2.9,6.1-5.7,9.3-8.6c-6.7-4.7-10.9-11-14.5-17.9
		c-1.1,0.4-2.1,0.7-3.1,1c-0.3,0.1-0.5,0.3-1,0.6C258.1,114,261.3,122.4,265.4,130.2 M37,91.3c5,3.5,5.4,3.9,8.1,8.8
		c3.9-1.9,7.8-3.9,11.8-5.9c-1.2-3.8-3-7.2-5.6-10.2c-1.9-2.2-3.5-2.3-5.6-0.5C42.9,86,40.1,88.6,37,91.3 M575,91.5
		c-0.3-0.4-0.4-0.7-0.6-0.9c-2.7-2.4-5.4-4.9-8.2-7.2c-2.1-1.8-3.3-1.8-5.2,0.3c-2.8,3-4.5,6.6-5.9,10.5c4.1,2.1,8,4,12,6
		C568.5,96.3,571.3,93.5,575,91.5 M70.9,89.1c0.3,0,1.3,0.2,2.2,0.3c2.9,0.1,5.7,0,8.6,0c1.8-3.8,1.4-9.5-0.9-12.8
		c-0.8-1.1-1.6-1.8-3.1-1.6c-2.7,0.4-5.3,0.7-8,1c-1.4,0.2-2.8,0.4-3.8,0.6C67.5,80.7,69.1,84.7,70.9,89.1 M546.4,76.4
		c-4.1-0.5-8.4-1.1-12.8-1.4c-0.7-0.1-1.7,0.9-2.1,1.6c-2.3,3.6-2.8,7.5-1.6,11.5c0.2,0.6,1,1.4,1.5,1.4c3.5,0,7-0.2,9.9-0.4
		C543.1,84.7,544.7,80.7,546.4,76.4 M252,135.4c3.7,3.2,7.5,5.8,10.5,9.1c3,3.2,5.2,7.1,8,10.9c0.2-2.4,0.2-4.5,0.5-6.6
		c0.3-1.6-0.1-2.9-1-4.3c-3.3-5.3-6.4-10.7-9.6-16c-0.5-0.9-0.9-1.8-1.6-3.2C256.3,129,254.1,132.3,252,135.4 M405,345.1
		c-5.2,6.5-10.2,12.9-15.2,19.3c-0.3,0.4-0.5,0.9-0.6,1.3c-0.1,2.1,0,4.3,0,7c5-3.9,9.5-7.4,14-11c0.4-0.3,0.8-0.8,1-1.4
		C405.9,355.4,406.5,350.3,405,345.1 M207.5,345.4c-0.2,0.1-0.4,0.1-0.6,0.2c-0.2,1.6-0.6,3.2-0.6,4.8c0.1,5.5,0.5,11,6.3,14
		c0.8,0.4,1.4,1,2.1,1.5c2.6,2,5.3,4,8.2,6.2c0-1.7-0.1-3,0-4.2c0.3-2.2-0.6-3.8-1.9-5.4c-3.2-3.7-6.2-7.6-9.2-11.5
		C210.3,349.2,208.9,347.3,207.5,345.4 M264.9,64.7c4.8,5.2,10.4,9.9,16,14.4c1.9-1.6,1.4-3,0.6-4.6c-3-6.6-5.9-13.3-8.8-20
		c-0.2-0.5-0.5-1.1-0.6-1.4C269.9,57,267.5,60.6,264.9,64.7 M340.1,53.5c-3.2,7.2-6.7,14.7-10.1,22.3c-0.7,1.5,0.2,2.3,1,3.3
		c3.8-2.3,14-11.5,16.1-14.5C344.7,60.7,342.3,56.9,340.1,53.5 M543.7,61.8c-4.3-1.3-9-2.8-13.9-4.4c-1.2,6.2,1.5,10.7,4.7,15.2
		c3.4,0.4,7.1,0.9,10.5,1.3C544.6,69.8,544.2,66.1,543.7,61.8 M82.2,57.4c-5,1.6-9.7,3.1-14.5,4.6c1.1,4.2-0.1,7.9-1.1,12
		c3.9-0.5,7.5-1,10.8-1.4C80.8,68.1,83.5,63.6,82.2,57.4 M65.5,91.5c-2-1.2-4.8-1-6.4-4c3.4,0.6,6.4,1,9.6,1.5
		c-0.4-3.8-1.7-6.9-3.5-9.7c-1.1-1.7-2.7-2.4-4.7-1.9c-2.4,0.6-4.8,1.2-7.2,1.9c-1,0.3-2,0.9-3.1,1.4c4.4,3.7,6.7,8.2,8.6,13
		C61.1,92.9,63.3,92.2,65.5,91.5 M562,80.6c-3.8-1.8-7.5-2.8-11.3-3.3c-0.8-0.1-2,0.3-2.6,0.8c-2.8,2.9-4.1,6.5-4.6,10.8
		c3.3-0.5,6.2-0.9,9.6-1.5c-1.8,2.8-4.4,2.9-6.6,4c2.3,0.7,4.5,1.5,6.9,2.2C555.3,88.8,557.7,84.3,562,80.6 M584.8,104.7
		c0.6-2.1,0-3.4-1.4-4.6c-1.1-0.9-1.9-2.1-2.9-3.2c-1.3-1.5-2.6-3-3.8-4.3c-4.6,1.7-6.9,4.7-8.1,8.1c2.4,3.4,4.7,6.5,7,9.7
		C577.6,107,581.2,105.8,584.8,104.7 M43.5,100.8c-1.1-3.1-3-5.7-6.1-7.4c-1.2-0.7-2-0.6-3,0.5c-2.2,2.5-4.6,4.9-6.8,7.3
		c-1.4,1.5-0.9,3.3,1.1,3.9c3.3,1,6.1,2.6,7.9,5.2C38.9,107.2,41.1,104.1,43.5,100.8 M324,123.6c-5.5-2.5-5.8-2.8-14-13.3
		c-1,0.4-2,0.8-3.1,1.3c2.7,7.6,5.3,14.9,7.9,22.2C318,130.3,321,127,324,123.6 M353.4,125.3c-0.6,1.1-1,1.9-1.4,2.6
		c-3.1,5.3-6.1,10.6-9.3,15.8c-2,3.1-2.1,3.2,0.2,6.8c3.9-7,10.1-11.6,17-15.5C357.8,131.8,355.7,128.7,353.4,125.3 M38.9,74.2
		c-3.5,2.7-6.7,5-10,7.5c1-0.1,1.8-0.1,2.7-0.2c0.1,0.2,0.1,0.4,0.2,0.5c-1.4,0.8-2.7,1.6-3.5,2v13.1c3.5-3.5,6.6-6.7,9.7-9.9
		c0.4-0.4,0.5-1,0.6-1.6c0.3-1.2,0.4-2.5,0.8-3.7C40.2,79.5,39.8,77,38.9,74.2 M582.3,81.4c-2.9-2.4-5.8-4.8-8.8-7.2
		c-1.5,3.3-1.2,10.4,0.5,13c0.2,0.3,0.5,0.6,0.8,0.8c1.5,1.4,2.9,2.8,4.3,4.2c1.5,1.5,2.9,3.2,4.7,5.2V84.1c-1-0.6-2.2-1.4-4-2.5
		C581.3,81.4,581.8,81.4,582.3,81.4L582.3,81.4L582.3,81.4z M89.1,72c1.9-6.6,3.7-13,5.6-19.6c-3.5,1.5-6.9,2.8-10.4,4.3
		c0.8,5.5-0.1,10.5-3.3,15.3H89.1L89.1,72z M517.5,52.5c1.9,6.7,3.7,13,5.5,19.5h8c-2.8-4.7-4.3-9.7-3.1-15.3
		C524.5,55.3,521.1,53.9,517.5,52.5 M57.7,111c-4.5,3.2-8.2,6.8-10.7,11.6c-0.3,0.6-0.4,1.6,0,2.1c1.5,2.3,3.1,4.4,4.5,6.4
		c3-2.1,5.7-3.9,8.6-6C57,120.9,54.1,116.6,57.7,111 M558,142.5c0.4-2.9,0.8-5.6,1.2-8.3c0-0.3-0.1-0.8-0.3-1
		c-2.1-2.6-4.3-5-7.5-6.3c-3.2,3.9-4.5,8.8-3.3,13.3c1.7,0.6,3.3,1.3,5.1,1.8C554.7,142.2,556.3,142.3,558,142.5 M426.5,389.7
		c5.4-2.2,11-4.4,16.9-6.8c-3-2.3-5.6-4.2-8.2-6.1c-4.7,2.7-9.1,5.2-13.4,7.6C423.4,386.2,424.8,387.8,426.5,389.7 M168.8,382.9
		c6.1,2.5,11.6,4.7,16.9,6.8c1.7-2,3.2-3.6,4.7-5.3c-4.4-2.5-8.9-5-13.5-7.6C174.3,378.7,171.7,380.7,168.8,382.9 M552.4,125.3
		c2.7,1.9,5.5,3.7,8.2,5.6c1.3-1.7,2.5-3.6,3.9-5.2c1.2-1.4,1.2-2.6,0.2-4.1c-2.4-3.8-5.3-7-8.8-9.8c-0.4-0.3-1-0.6-1.4-0.9
		c1.4,2.6,1.9,5.2,1.1,7.7C554.9,121,553.5,123.2,552.4,125.3 M61,126.7c-3.1,1.5-5.3,3.6-7.3,6c-0.3,0.4-0.7,1.1-0.6,1.5
		c0.4,2.7,0.9,5.4,1.4,8.6c2.9-0.8,5.5-1.5,8.2-2.1c1.5-0.4,1.9-1.3,2-2.7C64.9,133.8,63.4,130.2,61,126.7 M413.4,333.5
		c-2.3,3-4.5,5.9-6.7,8.9c-0.2,0.3-0.2,0.9,0,1.3c1.4,4,1.6,8,0.9,12.2c-0.1,0.5,0,1.1,0,2.3c3.2-3.1,6-5.8,8.2-7.9
		C414.9,344.3,414.2,339,413.4,333.5 M204.9,358.4c-0.7-5.4-1.1-10,0.5-14.6c0.2-0.6-0.2-1.5-0.6-2.1c-1.4-2-2.9-4-4.5-6
		c-0.6-0.8-1.2-1.5-1.9-2.2c-0.1,5.1-0.6,9.9-2,14.5c-0.2,0.7-0.1,1.9,0.3,2.4C199.3,353,201.9,355.5,204.9,358.4 M288.2,123.8
		c2.8,3,5.6,6,8.5,9.1c2.3-6.7,4.6-13.4,6.8-20.1c0.5-1.5,0.1-2.4-1.7-2.3C296.2,118.8,295.1,119.9,288.2,123.8 M546.6,62.7
		c-1.2,4.3,0.1,7.6,1.8,10.9c0.2,0.5,0.8,1,1.2,1.1c2.8,0.7,5.7,1.2,8.3,1.8c0.5-3.3,0.9-6.4,1.4-9.8
		C555.3,65.4,551,64.1,546.6,62.7 M65.6,62.7c-4.3,1.4-8.7,2.7-12.5,3.9c0.4,3.6,0.8,6.7,1.1,9.9c2.5-0.5,5-1,7.5-1.7
		c0.8-0.2,1.9-0.8,2.3-1.4C65.6,70.1,66.8,66.7,65.6,62.7 M230.6,405.4c-5.3-4-10.9-7-16.7-10c-0.5-0.2-1.4-0.1-1.8,0.2
		c-1.3,1.1-2.4,2.4-3.6,3.7c6.4,3.4,12.5,6.7,18.6,10C228.1,408.2,229.2,407,230.6,405.4 M210.3,393.7c-5.2-2.5-10.4-5-15.6-7.3
		c-0.6-0.3-1.7-0.1-2.4,0.2c-1.7,0.9-3,2.3-3.8,4.2c4.4,1.9,8.6,3.7,12.8,5.5c3.3,1.4,6.2,0.8,8.7-1.9
		C210.1,394.3,210.1,394.2,210.3,393.7 M401.8,393.8c1.7,1.6,3.1,3,4.7,4.5c5.6-2.5,11.5-5,17.6-7.6c-1.1-1.3-1.9-2.2-2.8-3.1
		c-1.4-1.5-2.9-1.9-4.9-0.7c-1.8,1.1-3.8,1.8-5.7,2.7C407.8,391,404.9,392.4,401.8,393.8 M403.8,399.4c-1-1-1.9-1.9-2.7-2.8
		c-1.1-1.3-2.2-1.6-3.7-0.6c-3.4,2-6.9,3.8-10.3,5.8c-1.9,1.1-3.6,2.4-5.5,3.7c1.3,1.4,2.3,2.6,3.4,3.8
		C391.2,406,397.3,402.8,403.8,399.4 M571.2,84.2c-0.4-3.5-1.1-6.9,0-10.3c0.2-0.5-0.5-1.6-1-2.1c-2.5-1.9-5.3-3.4-8.4-4.3
		c-2,2.6-2.3,5.4-1.7,8.3c0.2,0.7,0.8,1.6,1.4,2C564.7,80,567.9,82.1,571.2,84.2 M253,401.4c-0.9-4.1-2.4-7.9-4.7-11.3
		c-2.8-4.1-6.1-7.5-8.8-8.9c1.1,4.2,2.6,8,5,11.4c1.9,2.5,3.9,5,5.8,7.5c2.3,3.1,4.4,6.2,6.6,9.3c0.2-0.1,0.4-0.2,0.6-0.2
		c-1.7-6.5-3.3-12.9-5-19.4c-0.3-1.2-1.2-1.5-2.5-1C252.2,392.8,253.6,396.9,253,401.4 M41,84.1c3.6-2.3,6.8-4.3,10-6.3
		c0.4-0.2,0.8-0.7,0.8-1.1c0.5-3.1,1-6.3-1.9-9.3c-2.7,1.5-5.4,3.1-8.1,4.6c-1,0.6-1,1.3-0.8,2.4c0.3,2.2,0.3,4.5,0.3,6.8
		C41.3,82.1,41.1,83,41,84.1 M362.2,388.3c-1.6,0.2-2.4,0.4-2.7,1.7c-1.2,4.7-2.5,9.4-3.7,14.2c-0.4,1.6-0.6,3.2-1,5.4
		c4.4-5.9,8.5-11,12.2-16.5c2.1-3,3.5-6.6,5.1-9.9c0.2-0.5,0-1.1,0-2c-6.5,5.6-11.5,11.8-13,20.2
		C358.6,396.9,359.9,392.8,362.2,388.3 M592.1,98.3c2.1,2.9,2.7,3.1,5.3,1.6c1.9-1.2,3.8-2.5,5.4-3.6c-0.8-4.4-1.5-8.4-2.3-12.5
		c-1.4,0.2-2.7,0.2-3.9,0.5c-0.5,0.1-1.3,0.4-1.4,0.8c-0.5,3.2-1.5,6.3-0.2,9.5c1.1-0.2,2.1-0.3,3-0.4c0.1,0.2,0.2,0.5,0.2,0.7
		C596.4,95.9,594.3,97,592.1,98.3 M17.4,94.5c0-3.5,0.5-6.8-0.9-10.2c-1.7-0.2-3.4-0.3-5.2-0.5c-0.3,2.1-0.4,3.9-0.8,5.6
		c-0.3,1.9-0.9,3.7-1.2,5.6c-0.1,0.5,0.3,1.3,0.7,1.7c1.5,1.2,3.1,2.2,4.8,3.2c2.7,1.6,3.4,1.3,5.1-1.7c-1.8-1.6-4.7-1.5-6.3-4.1
		C15,94.2,16,94.4,17.4,94.5 M259.6,102c-4.5-10.7-4.9-21.5-4.3-32.8c-1.3,0.3-2.1,0.6-3,0.8c-0.4,11.3,0.5,22.2,3.1,33.2
		C256.8,102.9,257.9,102.5,259.6,102 M238.5,77.6c2.1,4.3,4.2,8.6,6.2,12.9c1.4,3.1,1.6,3.2,4.9,2c-0.4-4.7-0.7-9.5-1.1-14.3
		C245,78,241.7,77.8,238.5,77.6 M93.2,91.3c-3.3-5.8-4.4-11.4-3.9-17.6c-2.7,0.3-5,0.5-7.6,0.8c3,4.8,3.7,9.9,2.3,15.3
		C87,90.3,89.8,90.8,93.2,91.3 M373.6,77.6c-3.1,0.2-6.4,0.4-10,0.6c-0.4,4.9-0.8,9.7-1.2,14.7c1.7-0.1,3.4,1.3,4.4-0.9
		C369.1,87.1,371.4,82.3,373.6,77.6 M356.7,69.2c1,11.4,0.1,22.2-4,32.8c1.5,0.4,2.7,0.8,4.1,1.2c2.5-11.2,3.5-22,2.9-33.2
		C358.7,69.8,357.9,69.6,356.7,69.2 M12,121.2c-1.6,3.3-3.1,6.6-4.5,9.5c2.1,2,3.9,3.8,5.9,5.7c2.1-3.3,4.2-6.6,6.4-9.9
		C17.7,124,15.2,122.2,12,121.2 M600.1,121.2c-3.2,1.2-5.8,2.6-7.6,5.4c2.2,3.4,4.3,6.7,6.3,9.8c2.1-2,4.1-3.9,6-5.7
		C603.2,127.6,601.7,124.4,600.1,121.2 M522.9,73.7c0.7,6.3-0.7,11.9-3.7,17.6c3.3-0.6,6.1-1,9-1.5c-1.3-5.5-0.8-10.5,2.2-15.2
		C527.9,74.3,525.6,74,522.9,73.7 M593.3,84.8h-7.2c-2,4.8-1.7,9.4,0.5,14c2.3-1.3,4.3-2.5,6.7-4L593.3,84.8L593.3,84.8z
		 M27.3,118.3c-2-1.9-3.7-3.8-5.7-5.5c-0.5-0.4-1.7-0.6-2.3-0.3c-2.9,1.6-5.3,3.7-6.3,6.7c2.8,1.8,5.4,3.5,8,5.2
		C22.9,122.7,24.9,120.7,27.3,118.3 M247.7,422.9c-2.6-4.3-7.6-9.9-12.8-14.2c-2.1-1.8-2.6-1.8-4.5,0.2c-0.5,0.5-0.9,1.2-1.4,1.8
		c2.7,2.1,5.3,4,7.7,6.1c2.5,2.1,4.9,4.3,7.3,6.5l-0.4,0.6C244.9,423.5,246.2,423.2,247.7,422.9 M599.1,119.1
		c-1.2-2.7-3.2-4.7-5.6-6.3c-1.1-0.8-2.1-0.7-3.2,0c-2.3,1.5-3.9,3.5-5.1,5.7c2.1,2.1,4,4.1,5.8,5.9
		C593.7,122.8,596.3,121.1,599.1,119.1 M368,423.8c5.1-4.6,10-9,14.9-13.5c-0.3-0.4-0.7-1-1.2-1.5c-1.8-1.9-2.2-1.9-4.3-0.3
		c-5,4.1-9.4,8.7-13.2,14.2C365.8,423.2,367.2,423.6,368,423.8 M25.7,98.7c1.9-4.7,2.3-9.2,0.5-13.8h-7.4c0.2,3.6,0.4,6.9,0.5,10
		C21.5,96.3,23.5,97.5,25.7,98.7 M583.6,117.6c2.2-2.4,4.3-4.6,6.3-6.8c-0.8-0.7-1.7-1.3-2.4-2c-0.7-0.7-1.3-1.6-2.1-2.5
		c-1.1,0.3-2.2,0.7-3.3,1c-2.4,0.7-4.2,2.3-5.4,4.4c-1,1.6-0.4,3.1,1.4,3.8C580,116.2,581.8,117,583.6,117.6 M28.6,117.6
		c1.6-0.6,3.2-1.3,4.9-2c2.5-0.9,3-2.5,1.5-4.6c-2-3-5.1-4.2-7.1-4.4c-2.4,1.9-4.1,3.2-5.5,4.4C24.4,113.1,26.4,115.2,28.6,117.6
		 M373.7,385.5c3.5-3,6.6-6.1,10.1-8.6c3.4-2.4,3.6-5.6,3.5-9.5c-3.5,3.2-6.8,6.3-10.1,9.2c-1.6,1.4-2.9,2.6-2.6,5
		C374.7,382.8,374.1,384,373.7,385.5 M224.7,367.3c0.2,2.3,0.4,4.1,0.7,5.8c0.1,0.6,0.5,1.3,1,1.7c3.9,3.5,7.9,7,11.9,10.4
		c-0.3-2-0.5-4-0.8-6c-0.1-0.6-0.6-1.2-1.1-1.6C232.6,374.4,228.9,371.1,224.7,367.3 M320.5,203.5c0.9,0.8,1.7,1.8,2.7,2.5
		c2.5,1.7,3.2,4,2.4,6.8c-0.7,2.6-1.5,5.3-2.4,8.2c1.5-0.5,3.2,0.4,4.1-1.4c1.8-3.9,3.1-7.9,2.9-12.2c0-0.6-0.7-1.7-1.2-1.9
		c-2.7-0.9-5.5-1.6-8.2-2.4L320.5,203.5L320.5,203.5z M295.1,219.8c-0.7-2.8-1.3-5.4-2-7.9c-0.6-2.3,0.3-4.1,2.1-5.6
		c1.1-0.9,2.1-1.8,3.2-2.8c-2.9,0.2-5.5,1.1-8.1,1.7c-1.4,0.3-1.8,1.1-1.8,2.4c0.1,4.3,1.4,8.2,3.2,12.1H295.1 M316.7,204.4
		c-0.2,0.1-0.3,0.2-0.5,0.4c2.8,5.5,2.5,11.2,1.4,16.8c3.1,0.6,4.3-1.2,4.9-3.6c0.2-0.7,0.5-1.4,0.7-2.2c0.7-3.3,0.6-6.2-2.7-8.3
		C319.1,206.6,317.9,205.4,316.7,204.4 M301.3,221.1c-1.1-5.6-1.1-11.2,1.2-16.6c-1.8,1.2-3.3,2.6-4.9,3.8c-1.9,1.4-2.6,3.3-2.1,5.6
		c0.2,1.1,0.5,2.2,0.7,3.4C296.8,219.9,298.2,221.4,301.3,221.1 M582.9,67.7c-2.8,1.4-3.9,5.2-7.9,6c3.3,2.3,6.3,4.3,9.8,6.7
		c0.1-2.1,0.5-3.4,0.2-4.6C584.5,73,583.6,70.4,582.9,67.7 M27.6,80.3c3.2-2.2,6.2-4.3,9.6-6.7c-4.2-0.7-5.1-4.7-8.2-5.8
		c-0.3,2.1-0.3,4.3-1.1,6.1C27,75.9,26.9,77.6,27.6,80.3 M585.6,75.3c1.4-1.3,2.1-1.9,3.3-3c0,3.3-2.8,5.8-0.8,8.3
		c0.8-2.3,1.5-4.7,2.5-6.9c1.6-3.5,0.9-5.9-2.4-7.7c-1.9-1-3.3-0.4-3.4,1.7C584.8,70.1,585.3,72.4,585.6,75.3 M606.6,132.6
		c-2.9,0.9-5.1,2.6-5.9,4.6c-0.2,0.5-0.2,1.1,0,1.6c0.9,1.7,4.5,3,6.3,2.4c1.9-0.7,2.8-2.4,2.1-4.3
		C608.4,135.3,607.3,133.9,606.6,132.6 M24.2,80.5c2.1-2.6-1.7-5-0.6-7.8c1,0.8,1.8,1.4,3,2.4c0.2-2.9,0.5-5.1,0.5-7.4
		c0-1.1-0.4-2.3-2.1-2.1c-2.9,0.4-5.2,4.3-4.1,7C22,75.2,23,77.8,24.2,80.5 M5.6,132.6c-0.7,1.2-1.6,2.4-2.3,3.7
		c-0.7,1.4-0.7,2.8,0.4,4c1.2,1.2,2.8,1.5,4.2,0.8c1.4-0.7,2.6-1.7,3.9-2.6C10.3,134.8,9.1,133.7,5.6,132.6 M543.2,57.5
		c3.6,4.9,9.2,5.1,14.3,6.7c-1.2-1.4-0.3-3.9-2.6-4.4C551,59,547.1,58.3,543.2,57.5 M69.1,57.5c-3.1,0.6-6.2,1.2-9.2,1.8
		c-2.7,0.5-4.4,2.3-5,5.2C59.9,62.7,65.4,62.2,69.1,57.5 M53.5,61.2c-4.4,0.8-7.8,3.4-10.9,6.3c-0.4,0.4-0.2,1.3-0.4,2.3
		c2.3-1.1,4.1-2.1,6.1-2.8C51,65.9,52.5,63.8,53.5,61.2 M570.3,69.7c-0.5-1.2-0.6-2.2-1.2-2.7c-3.1-2.8-6.4-5.2-10.9-6.2
		C560.3,65.4,561.6,66.3,570.3,69.7 M97.7,47.4c-0.1-0.2-0.3-0.5-0.4-0.8c-1,0.3-1.9,0.6-2.9,1c-2.2,1-4.3,2.2-6.5,3
		c-1.7,0.7-2.3,1.7-2.1,4C90,52.2,95.1,51.9,97.7,47.4 M514.5,46.3c0.8,3.5,3,4.4,5.2,5.4c2.1,0.9,4.2,1.9,6.3,2.8
		c0.2-0.2,0.3-0.4,0.5-0.6c-0.3-0.8-0.5-2.1-1.1-2.4C522.1,49.7,518.5,48.1,514.5,46.3 M83.5,52.8c-3.1,1.1-6.2,2.2-9.4,3.2
		c-1.6,0.5-2.6,1.4-2.8,3.6C75.6,57.2,81,58,83.5,52.8 M528.9,52.9c-0.1,0.1-0.3,0.3-0.4,0.4c0.8,0.9,1.3,2.2,2.3,2.6
		c3.3,1.3,6.7,2.3,10,3.5c0.1-0.2,0.2-0.4,0.3-0.5c-0.6-0.8-1-2.1-1.8-2.4C535.9,55.1,532.4,54.1,528.9,52.9 M444,73.3
		c-2.6-3.4-9-6.9-13-6.8C435.6,69,438.5,73.3,444,73.3 M180.4,66.8c-0.1-0.2-0.3-0.4-0.5-0.5c-4.4,1.3-8.6,3-11.7,6.8
		c1.3,0.1,2.7,0.2,3.7-0.4C174.9,70.9,177.6,68.8,180.4,66.8 M604.3,95c3.4-3.1,2.4-9-1.7-10.7C603.2,87.9,603.7,91.4,604.3,95
		 M556.8,144.8c-2.5-0.7-4.9-1.4-7.5-2.1C551.5,147.3,554.3,148,556.8,144.8 M63.3,142.6c-2.9,0.9-5.4,1.6-8,2.4
		C57.9,147.7,60.7,146.9,63.3,142.6 M308.7,458.6c1.8,0.2,3.3-0.5,4-1.9c0.9-1.9,1.3-4,1.9-6.1c-0.1,0-0.2-0.1-0.3-0.1
		C312.4,453.2,310.5,455.9,308.7,458.6L308.7,458.6L308.7,458.6z M297.8,450.2c0.5,2.4,1.9,4.2,3.5,5.9l0.6-0.4
		C300.6,453.8,299.2,452,297.8,450.2L297.8,450.2L297.8,450.2z M283.8,79.3c-1.3,1.8-1,2.4,1.9,3.6
		C285.1,81.6,284.5,80.5,283.8,79.3 M326.8,83.2c0.7-1.1,2.9-1.4,2.2-3.2c-0.3-0.1-0.6-0.3-0.9-0.4C327.7,80.7,327.3,82,326.8,83.2
		L326.8,83.2z M248.9,278.8c-0.1,2.1,1,1.8,2,1.5c0.2,0,0.3-0.4,0.5-0.7C250.6,279.3,249.9,279,248.9,278.8 M37.9,72.3
		c0.1,0.1,0.3,0.3,0.4,0.4c0.7-0.7,1.3-1.4,2-2.1c-0.2-0.2-0.3-0.3-0.5-0.4C39.2,70.9,38.5,71.6,37.9,72.3 M573.7,72.1
		c-0.4-0.6-0.8-1.2-1.2-1.8c-0.2,0.2-0.4,0.4-0.6,0.6C572.5,71.3,573.1,71.7,573.7,72.1L573.7,72.1L573.7,72.1z M290.1,193.9
		c0,0.2,0,0.4,0,0.7c0.6,0,1.1-0.1,1.7-0.1v-0.4C291.2,194,290.6,194,290.1,193.9 M582.4,81.3c0.2,0.1,0.3,0.3,0.5,0.4
		c0.1-0.1,0.1-0.2,0.2-0.3L582.4,81.3L582.4,81.3L582.4,81.3z M297.8,450.2c-0.1-0.1-0.1-0.3-0.2-0.4
		C297.7,449.9,297.7,450.1,297.8,450.2L297.8,450.2L297.8,450.2z M301.3,459.9c0.2,0.2,0.3,0.3,0.5,0.5c0.1-0.1,0.1-0.1,0.2-0.2
		C301.8,460.1,301.5,460,301.3,459.9L301.3,459.9z M378.2,112l-0.1-0.2L378.2,112L378.2,112L378.2,112z M326.8,83.1l-0.1,0
		L326.8,83.1L326.8,83.1z M273.6,324.3c-0.1,0-0.1-0.1-0.2-0.1C273.5,324.2,273.5,324.3,273.6,324.3L273.6,324.3L273.6,324.3z
		 M271.2,430.7c0,0,0.1,0,0.1,0C271.3,430.7,271.2,430.6,271.2,430.7L271.2,430.7L271.2,430.7z M573.7,72.1c0.1,0.1,0.3,0.1,0.4,0.2
		C574,72.2,573.9,72.2,573.7,72.1C573.8,72.1,573.7,72.1,573.7,72.1z M308.7,458.6C308.7,458.6,308.7,458.6,308.7,458.6L308.7,458.6
		z M340.1,322.7c0,0-0.1-0.1-0.1-0.1C340,322.5,340,322.6,340.1,322.7L340.1,322.7L340.1,322.7z"/>
</g>
</svg>
